<?xml version="1.0" encoding="UTF-8" standalone="no"?>
<svg xmlns="http://www.w3.org/2000/svg" viewBox="0 0 395.52 127.91349003152766" height="127.91349003152766" width="395.52"><path d="M394.594 27.435C392.735 14.158 387.435 10.467 387.435 10.467 371.165-3.209 350.86-0.262 332.619 1.703 300.414 1.783 268.339 4.704 236.208 6.271 168.767 6.51 100.749 2.58 33.643 12.272 27.339 15.246-6.54 12.856 1.121 29.135 3.129 35.906 10.456 43.421 10.232 49.635 11.236 50.724 12.631 48.227 13.226 49.794 15.309 54.016 18.711 52.025 21.501 54.521 17.614 61.186 20.403 66.736 23.062 72.552 18.377 74.065 12.371 73.348 9.675 78.367 9.396 82.005 7.89 81.315 6.235 81.155 5.026 81.049 2.59 81.447 2.999 82.589 4.394 86.493-1.594 88.75 2.162 92.574-0.422 96.716 3.948 100.301 3.353 104.789 3.278 105.692 3.687 106.462 4.338 106.674 7.22 107.816 3.018 110.047 3.464 112.463 33.029 128.98 65.104 117.562 95.394 125.156 103.259 119.846 97.346 127.042 100.489 125.927 102.943 124.625 104.728 130.016 107.499 126.962 107.927 126.086 107.276 124.015 108.8 124.413 109.6 124.625 110.307 124.572 110.418 123.351 110.586 121.518 109.117 122.66 108.726 121.704 112.947 116.871 111.906 128.37 115.866 127.892 115.68 126.484 114.528 124.466 116.889 124.732 119.232 122.713 119.306 121.04 121.389 125.581 121.463 126.564 121.835 127.254 122.43 127.732 128.938 122.793 135.409 129.485 142.233 127.254 146.417 124.811 150.433 128.582 154.672 127.653 156.16 126.909 157.666 125.581 159.098 127.812 176.632 128.29 195.319 126.298 211.943 127.892 256.364 124.917 303.836 129.113 350.674 125.183 361.719 123.669 373.192 121.518 383.958 119.792 383.958 119.792 392.679 115.066 392.679 93.822S394.538 75.234 394.817 58.318C395.096 41.403 396.398 40.712 394.538 27.435Z" opacity="1" fill="#505050" data-fill-palette-color="tertiary"/><g transform="matrix(1,0,0,1,55.76832,26.230666666666668)"><svg width="283.98335999999995" viewBox="0.15 -38.85 174.43 46.35" height="75.45215669819432" data-palette-color="#ebe3d6"><path d="M13.4-36.25L13.4-6.75Q13.4-2.3 11.7 0.85 10 4 7 5.68 4 7.35 0.15 7.5L0.15 7.5 0.15 7.5 0.15 2.4Q3.65 2.2 5.9 0 8.15-2.2 8.15-6.9L8.15-6.9 8.15-36.25 13.4-36.25ZM29.2 0.85L29.2 0.85Q26.3 0.85 24.45-0.9 22.6-2.65 22.5-5.4L22.5-5.4 22.5-20.9 27.55-20.9 27.55-7.2Q27.65-5.55 28.5-4.55 29.35-3.55 31.2-3.45L31.2-3.45Q32.9-3.45 34.25-4.48 35.6-5.5 36.37-7.3 37.15-9.1 37.15-11.35L37.15-11.35 37.15-20.9 42.2-20.9 42.2 0 37.65 0 37.25-4.9 37.45-4.1Q36.5-1.95 34.27-0.55 32.05 0.85 29.2 0.85ZM50.15 0L50.15-38.85 55.2-38.85 55.2 0 50.15 0ZM63.09 0L63.09-20.9 68.14-20.9 68.14 0 63.09 0ZM62.84-28.4L62.84-28.4Q62.84-29.55 63.77-30.35 64.69-31.15 65.79-31.15L65.79-31.15Q66.89-31.15 67.79-30.35 68.69-29.55 68.69-28.4L68.69-28.4Q68.69-27.15 67.79-26.4 66.89-25.65 65.79-25.65L65.79-25.65Q64.69-25.65 63.77-26.4 62.84-27.15 62.84-28.4ZM85.84 0.5L85.84 0.5Q82.24 0.5 79.64-0.93 77.04-2.35 75.64-4.88 74.24-7.4 74.24-10.6L74.24-10.6Q74.24-13.7 75.82-16.23 77.39-18.75 80.04-20.25 82.69-21.75 85.94-21.75L85.94-21.75Q90.14-21.75 92.92-19.33 95.69-16.9 96.64-12.5L96.64-12.5 79.59-6.6 78.39-9.5 92.09-14.5 91.04-13.8Q90.44-15.4 89.14-16.57 87.84-17.75 85.59-17.75L85.59-17.75Q82.79-17.75 81.02-15.83 79.24-13.9 79.24-10.9L79.24-10.9Q79.24-7.7 81.14-5.75 83.04-3.8 85.94-3.8L85.94-3.8Q87.29-3.8 88.54-4.28 89.79-4.75 90.89-5.55L90.89-5.55 93.19-1.8Q91.59-0.75 89.67-0.13 87.74 0.5 85.84 0.5ZM102.29-20.9L106.84-20.9 107.29-16.05 107.09-16.75Q108.09-19 110.31-20.35 112.54-21.7 115.54-21.7L115.54-21.7Q118.49-21.7 120.39-19.98 122.29-18.25 122.34-15.45L122.34-15.45 122.34 0 117.29 0 117.29-13.7Q117.24-15.3 116.34-16.32 115.44-17.35 113.54-17.4L113.54-17.4Q110.89-17.4 109.11-15.2 107.34-13 107.34-9.55L107.34-9.55 107.34 0 102.29 0 102.29-20.9ZM162.43-7.45L164.68-2.75Q163.83-2.2 162.26-1.43 160.68-0.65 158.56-0.1 156.43 0.45 153.93 0.4L153.93 0.4Q149.68 0.35 146.33-1.1 142.98-2.55 140.61-5.08 138.23-7.6 136.98-10.88 135.73-14.15 135.73-17.85L135.73-17.85Q135.73-21.95 137.06-25.38 138.38-28.8 140.78-31.33 143.18-33.85 146.46-35.25 149.73-36.65 153.63-36.65L153.63-36.65Q156.93-36.65 159.63-35.75 162.33-34.85 164.18-33.7L164.18-33.7 162.08-28.8Q160.63-29.8 158.51-30.7 156.38-31.6 153.78-31.6L153.78-31.6Q150.38-31.6 147.51-29.8 144.63-28 142.91-24.95 141.18-21.9 141.18-18.1L141.18-18.1Q141.18-14.25 142.76-11.2 144.33-8.15 147.23-6.4 150.13-4.65 154.03-4.65L154.03-4.65Q156.83-4.65 158.96-5.5 161.08-6.35 162.43-7.45L162.43-7.45ZM169.08-2.8L169.08-2.8Q169.08-4 169.96-4.83 170.83-5.65 171.88-5.65L171.88-5.65Q172.88-5.65 173.73-4.83 174.58-4 174.58-2.8L174.58-2.8Q174.58-1.55 173.73-0.78 172.88 0 171.88 0L171.88 0Q170.83 0 169.96-0.78 169.08-1.55 169.08-2.8L169.08-2.8Z" opacity="1" transform="matrix(1,0,0,1,0,0)" fill="#ebe3d6" class="wordmark-text-0" data-fill-palette-color="quaternary" id="text-0"/></svg></g></svg>
