<?xml version="1.0" encoding="UTF-8" standalone="no"?>
<svg xmlns="http://www.w3.org/2000/svg" xmlns:xlink="http://www.w3.org/1999/xlink" viewBox="0 0 225 247" data-background-color="#89939e" preserveAspectRatio="xMidYMid meet" height="2195" width="2000"><g id="tight-bounds" transform="matrix(1,0,0,1,0.20795683615818916,-0.09997365579206985)"><svg viewBox="0 0 224.58408632768362 247.2" height="247.2" width="224.58408632768362"><g><svg viewBox="0 0 224.58408632768362 247.2" height="247.2" width="224.58408632768362"><g><svg viewBox="0 0 224.58408632768362 247.2" height="247.2" width="224.58408632768362"><g id="textblocktransform"><svg viewBox="0 0 224.58408632768362 247.2" height="247.2" width="224.58408632768362" id="textblock"><g><svg viewBox="0 0 224.58408632768362 247.2" height="247.2" width="224.58408632768362"><path d="M224.058 53.02C223.002 27.36 219.993 20.227 219.993 20.227 210.755-6.202 199.225-0.506 188.868 3.292 170.581 3.446 152.368 9.091 134.124 12.119 95.829 12.581 57.207 4.986 19.103 23.717 15.524 29.464-3.713 24.846 0.637 56.304 1.777 69.39 5.937 83.913 5.81 95.922 6.38 98.026 7.172 93.202 7.51 96.23 8.693 104.39 10.625 100.541 12.208 105.365 10.002 118.246 11.585 128.971 13.095 140.21 10.435 143.135 7.024 141.749 5.493 151.449 5.335 158.479 4.48 157.145 3.54 156.837 2.854 156.632 1.471 157.402 1.703 159.608 2.495 167.152-0.905 171.514 1.228 178.904-0.24 186.91 2.241 193.838 1.904 202.511 1.861 204.255 2.094 205.744 2.463 206.154 4.1 208.361 1.714 212.672 1.967 217.342 18.754 249.262 36.967 227.195 54.167 241.872 58.633 231.608 55.275 245.516 57.06 243.36 58.453 240.846 59.467 251.263 61.04 245.362 61.283 243.668 60.913 239.665 61.779 240.435 62.233 240.846 62.634 240.743 62.698 238.382 62.793 234.841 61.959 237.048 61.737 235.201 64.134 225.861 63.542 248.081 65.791 247.158 65.686 244.438 65.031 240.538 66.372 241.051 67.702 237.151 67.744 233.918 68.927 242.693 68.969 244.592 69.18 245.926 69.518 246.85 73.214 237.305 76.888 250.237 80.763 245.926 83.138 241.205 85.419 248.492 87.826 246.696 88.671 245.259 89.526 242.693 90.339 247.004 100.295 247.928 110.906 244.079 120.345 247.158 145.569 241.41 172.524 249.518 199.12 241.923 205.391 238.998 211.906 234.841 218.019 231.506 218.019 231.506 222.971 222.371 222.971 181.316S224.027 145.393 224.185 112.703C224.343 80.013 225.082 78.679 224.027 53.02Z" opacity="1" fill="#ffffff" data-fill-palette-color="tertiary"/><g transform="matrix(1,0,0,1,55.768319999999996,26.230666666666668)"><svg width="113.04744632768363" viewBox="0.4 -34.65 20.55 35.4" height="194.73866666666666" data-palette-color="#89939e"><path d="M20.95-34.65L20.95-11.15Q20.95-8.65 20.43-6.5 19.9-4.35 18.57-2.73 17.25-1.1 15.03-0.18 12.8 0.75 9.45 0.75L9.45 0.75Q7.75 0.75 6.33 0.48 4.9 0.2 3.75-0.23 2.6-0.65 1.75-1.13 0.9-1.6 0.4-2.05L0.4-2.05 2.3-5.9Q3.35-5.15 5.03-4.33 6.7-3.5 9.2-3.5L9.2-3.5Q12.8-3.5 14.45-5.33 16.1-7.15 16.1-11.6L16.1-11.6 16.1-34.65 20.95-34.65Z" opacity="1" transform="matrix(1,0,0,1,0,0)" fill="#89939e" class="wordmark-text-0" data-fill-palette-color="quaternary" id="text-0"/></svg></g></svg></g></svg></g></svg></g><g/></svg></g><defs/></svg><rect width="224.58408632768362" height="247.2" fill="none" stroke="none" visibility="hidden"/></g></svg>